<svg xmlns="http://www.w3.org/2000/svg" width="1200" height="630" viewBox="0 0 1200 630">
  <rect width="1200" height="630" fill="#0A1628"/>
  <circle cx="960" cy="230" r="7" fill="#16C784" opacity="0.4"/>
  <circle cx="1040" cy="310" r="5" fill="#16C784" opacity="0.3"/>
  <circle cx="885" cy="340" r="6" fill="#16C784" opacity="0.35"/>
  <circle cx="975" cy="390" r="4" fill="#16C784" opacity="0.25"/>
  <circle cx="1075" cy="200" r="4" fill="#16C784" opacity="0.2"/>
  <line x1="960" y1="230" x2="1040" y2="310" stroke="#16C784" stroke-width="1.2" opacity="0.15"/>
  <line x1="960" y1="230" x2="885" y2="340" stroke="#16C784" stroke-width="1.2" opacity="0.12"/>
  <line x1="1040" y1="310" x2="975" y2="390" stroke="#16C784" stroke-width="1.2" opacity="0.1"/>
  <line x1="885" y1="340" x2="975" y2="390" stroke="#16C784" stroke-width="1.2" opacity="0.1"/>
  
  <text x="80" y="105" font-family="Arial Black" font-weight="900" font-size="20" fill="#16C784" letter-spacing="8" opacity="0.7">ORRENT</text>
  <rect x="80" y="130" width="110" height="32" rx="16" fill="#16C784" opacity="0.15"/>
  <text x="135" y="151" font-family="Arial" font-size="13" fill="#16C784" text-anchor="middle" font-weight="600">Article</text>
  <rect x="80" y="175" width="50" height="4" rx="2" fill="#16C784"/>
  <text x="80" y="262" font-family="Arial Black" font-weight="900" font-size="48" fill="#FFFFFF">Les biais cognitifs</text>
  <text x="80" y="324" font-family="Arial Black" font-weight="900" font-size="48" fill="#16C784">de vos clients</text>
  <text x="80" y="380" font-family="Arial" font-size="26" fill="#FFFFFF" opacity="0.7">comoriens</text>
  <text x="80" y="428" font-family="Arial" font-size="18" fill="#94A3B8">5 leviers psychologiques pour mieux vendre</text>
  <rect x="80" y="462" width="160" height="30" rx="15" fill="#FFFFFF" opacity="0.05"/>
  <text x="160" y="482" font-family="Arial" font-size="12" fill="#94A3B8" text-anchor="middle">Preuve sociale</text>
  <rect x="255" y="462" width="100" height="30" rx="15" fill="#FFFFFF" opacity="0.05"/>
  <text x="305" y="482" font-family="Arial" font-size="12" fill="#94A3B8" text-anchor="middle">Rarete</text>
  <rect x="370" y="462" width="100" height="30" rx="15" fill="#FFFFFF" opacity="0.05"/>
  <text x="420" y="482" font-family="Arial" font-size="12" fill="#94A3B8" text-anchor="middle">Ancrage</text>
</svg>